<?xml version="1.0" encoding="UTF-8" standalone="no"?> <svg id="savanna" xmlns="http://www.w3.org/2000/svg" viewBox="0 0 512 512"><title>savanna</title><circle cx="176.85" cy="241.78" r="31.91" style="fill:#f15942"/><path d="M221.28,109.72H174.16a8.45,8.45,0,0,0-8.45,8.45h0a8.45,8.45,0,0,0,8.45,8.45h3.38a6.33,6.33,0,0,1,6.33,6.34h0a6.33,6.33,0,0,1-6.33,6.33H147.13a8.45,8.45,0,0,0-8.45,8.45h0a8.45,8.45,0,0,0,8.45,8.45h29.4A27.26,27.26,0,0,1,193.41,162h0a23.44,23.44,0,0,0,14.78,5c17.33-.18,57.81,0,74.81,0a24.89,24.89,0,0,0,14.15-4.34h0a42.8,42.8,0,0,1,24.12-7.45h72.79a20.33,20.33,0,0,0,17.15-9.4h0a12.61,12.61,0,0,1,10.61-5.8h16.55a8.23,8.23,0,0,0,8.23-8.24h0a8.23,8.23,0,0,0-8.23-8.24H423.16a4,4,0,0,1-4-4h0a4,4,0,0,1,4-4h0a6.14,6.14,0,0,0,6.13-6.13v-.84a6.13,6.13,0,0,0-6.13-6.13H377.23a13,13,0,0,1-9.2-3.81h0a20.16,20.16,0,0,0-14.25-5.9H264.25a25,25,0,0,0-17,6.7h0A38.07,38.07,0,0,1,221.28,109.72Z" style="fill:#74b097"/><path d="M74.14,262.84s24.15-27.6,47-27.6,24.15,8.62,53.47,8.62,58.83-28.63,58.83-28.63,23.12-21.83,55.46-3.71S378.19,258.09,411,262.84Z" style="fill:#403c29"/><path d="M407.73,137.93H395.81a3.71,3.71,0,0,1,0-7.34c2.65,0,4.8-2.51,4.8-5.6v-.78c0-3.09-2.15-5.6-4.8-5.6h-36a9.5,9.5,0,0,1-7.22-3.49,14.78,14.78,0,0,0-11.17-5.4H271.23a18.18,18.18,0,0,0-13.36,6.13,27.66,27.66,0,0,1-20.33,9.33H200.6c-3.66,0-6.62,3.46-6.62,7.73s3,7.72,6.62,7.72h2.65c2.74,0,5,2.6,5,5.8s-2.22,5.79-5,5.79H179.4a6.52,6.52,0,0,0-5.75,4h2.88A27.26,27.26,0,0,1,193.41,162a23.44,23.44,0,0,0,14.78,5c17.33-.18,57.81,0,74.81,0a24.89,24.89,0,0,0,14.15-4.34h0a42.8,42.8,0,0,1,24.12-7.45h72.79a20.33,20.33,0,0,0,17.15-9.4,12.69,12.69,0,0,1,2.61-2.9C413,140.07,410.57,137.93,407.73,137.93Z" style="fill:#558971"/><path d="M244.21,259.6H76.31a11,11,0,0,0-10.9,11.55c8.15,153.39,178.8,148,178.8,148s170.65,5.39,178.8-148a10.94,10.94,0,0,0-10.9-11.55Z" style="fill:#ffba76"/><path d="M101,363.92c37.61,41.79,95.19,52,124.56,54.5,12.8-20.66,51.2-97.81-43-158.82H166.1C177.71,277.68,212.26,344.72,101,363.92Z" style="fill:#cc8042"/><path d="M406.9,335.4l-74.73-31.08-12.11,5.23,78.56,40A132.43,132.43,0,0,0,406.9,335.4Z" style="fill:#cc8042"/><path d="M389.21,128a1.5,1.5,0,0,0-2.87-.84,17.28,17.28,0,0,1-12.11,10.68c0-.29,0-.57,0-.87A3.14,3.14,0,0,0,370.8,134a3.2,3.2,0,0,0-2.8,3.33,17.21,17.21,0,0,1-5.11-2.57,16,16,0,0,0,.91-3.27,1.5,1.5,0,0,0-2.92-.63,15.51,15.51,0,0,1-.55,1.6,16.6,16.6,0,0,1-2.84-4.28,1.46,1.46,0,0,0-1.08-.83,1.48,1.48,0,0,0-1.7,1.88,15.77,15.77,0,0,0,3.91,6.42,17.63,17.63,0,0,1-9.84,7,2.59,2.59,0,0,0-4.46-.1A17.08,17.08,0,0,1,332.19,134a1.49,1.49,0,0,0-2.7,1.24c3.11,7.7,10.4,10,14.68,10.65,2.94,20-5.26,29.55-10.89,33.63A98.56,98.56,0,0,1,306.15,181s-32.15-.68-47.67-23.82c4-1.8,10.1-5.77,11.23-13.67a1.49,1.49,0,0,0-2-1.58,1.46,1.46,0,0,0-.93,1,17.2,17.2,0,0,1-10.06,11.37c-.3-.53-.61-1-.89-1.6a3.14,3.14,0,0,0-2.78-1.75H252a3.11,3.11,0,0,0-3.05,3.71,17.06,17.06,0,0,1-6.62-3.21,16,16,0,0,0,2.36-7.61,1.49,1.49,0,0,0-2.14-1.39,1.44,1.44,0,0,0-.83,1.08,17.26,17.26,0,0,1-2,5.41,17,17,0,0,1-1.58-2.27A1.45,1.45,0,0,0,237,146a1.48,1.48,0,0,0-1.51,2,16,16,0,0,0,2.25,3.78,18,18,0,0,1-5.8,4.37c-.42-1-.74-1.82-1-2.51a2.77,2.77,0,0,0-3.11-1.84,2.86,2.86,0,0,0-2.09,3.9c.16.45.34.85.51,1.28a17.09,17.09,0,0,1-12.77-7.16,1.49,1.49,0,0,0-2.54,1.53c4.27,8,12.77,9,16.81,9,12.94,26.38,41.75,22.23,50.1,20.38a103.53,103.53,0,0,0,23.84,6s-4.63,10.4-6.58,28.44a81.06,81.06,0,0,0,3.47,33.13,27.86,27.86,0,0,1-14.92-6.48c3-2.76,8.61-9.22,6.47-18a1.49,1.49,0,0,0-2.45-.72,1.48,1.48,0,0,0-.49,1.28,17.3,17.3,0,0,1-5.93,15.08,25.36,25.36,0,0,1-3.09-4.28,2.56,2.56,0,0,0-4.5,2.45,26.06,26.06,0,0,0,2.63,4.06A17.07,17.07,0,0,1,262,238.51a1.46,1.46,0,0,0-1.34-.24,1.48,1.48,0,0,0-.65,2.45c6.47,6.46,15,4.89,18.84,3.73,4.13,3.9,10.77,7.59,21.16,8.07a90.16,90.16,0,0,0,5.57,12.12c4.9,8.9,10.93,23.47,9.16,39.07a5.28,5.28,0,0,0,5.28,5.84h6.79a5.31,5.31,0,0,0,5.32-5.23,60.67,60.67,0,0,0-18.43-44.72s-21.59-18.72-4.6-72.88c0,0,66.32,4.68,65.27-45.51C378,140.38,386.94,137.4,389.21,128Zm-155.79,31.2a23,23,0,0,0,6.77-4.93,21.12,21.12,0,0,0,10.6,4.18c3.3,5.72,8.78,13.18,20.27,19.24C248.35,179.16,237.89,167.33,233.42,159.15Zm110.43,17.17c6.77-7.95,6.29-22.8,5.52-30.33,2.18-.6,8.31-2.73,11.93-8.15a22,22,0,0,0,6.79,2.95C367.93,150.41,364.09,167.78,343.85,176.32Z" style="fill:#877280"/><path d="M389.21,128a1.5,1.5,0,0,0-2.87-.84,17.28,17.28,0,0,1-12.11,10.68c0-.29,0-.57,0-.87A3.14,3.14,0,0,0,370.8,134a3.2,3.2,0,0,0-2.8,3.33,17.21,17.21,0,0,1-5.11-2.57,16,16,0,0,0,.91-3.27,1.5,1.5,0,0,0-2.92-.63,15.51,15.51,0,0,1-.55,1.6,16.6,16.6,0,0,1-2.84-4.28,1.46,1.46,0,0,0-1.08-.83,1.48,1.48,0,0,0-1.7,1.88,15.77,15.77,0,0,0,3.91,6.42,17.63,17.63,0,0,1-9.84,7,2.59,2.59,0,0,0-4.46-.1A17.08,17.08,0,0,1,332.19,134a1.49,1.49,0,0,0-2.7,1.24c3.11,7.7,10.4,10,14.68,10.65a50.6,50.6,0,0,1,.42,12h5.09a78,78,0,0,0-.31-12c2.18-.6,8.31-2.73,11.93-8.15a22,22,0,0,0,6.79,2.95,40,40,0,0,1-6.93,21.94h8.34c3.2-5.73,5.09-12.78,4.91-21.52C378,140.38,386.94,137.4,389.21,128Z" style="fill:#5a4652"/><path d="M240.48,168.23a36.06,36.06,0,0,1-7.06-9.08,23,23,0,0,0,6.77-4.93,21.12,21.12,0,0,0,10.6,4.18,46.75,46.75,0,0,0,13.38,15h13a49.07,49.07,0,0,1-18.68-16.16c4-1.8,10.1-5.77,11.23-13.67a1.49,1.49,0,0,0-2-1.58,1.46,1.46,0,0,0-.93,1,17.2,17.2,0,0,1-10.06,11.37c-.3-.53-.61-1-.89-1.6a3.14,3.14,0,0,0-2.78-1.75H252a3.11,3.11,0,0,0-3.05,3.71,17.06,17.06,0,0,1-6.62-3.21,16,16,0,0,0,2.36-7.61,1.49,1.49,0,0,0-2.14-1.39,1.44,1.44,0,0,0-.83,1.08,17.26,17.26,0,0,1-2,5.41,17,17,0,0,1-1.58-2.27A1.45,1.45,0,0,0,237,146a1.48,1.48,0,0,0-1.51,2,16,16,0,0,0,2.25,3.78,18,18,0,0,1-5.8,4.37c-.42-1-.74-1.82-1-2.51a2.77,2.77,0,0,0-3.11-1.84,2.86,2.86,0,0,0-2.09,3.9c.16.45.34.85.51,1.28a17.09,17.09,0,0,1-12.77-7.16,1.49,1.49,0,0,0-2.54,1.53c4.27,8,12.77,9,16.81,9a42.15,42.15,0,0,0,5,7.86Z" style="fill:#5a4652"/></svg>
